<?xml version="1.0" standalone="no"?>
<!DOCTYPE svg PUBLIC "-//W3C//DTD SVG 20010904//EN"
 "http://www.w3.org/TR/2001/REC-SVG-20010904/DTD/svg10.dtd">
<svg version="1.0" xmlns="http://www.w3.org/2000/svg"
 width="960.000000pt" height="960.000000pt" viewBox="0 0 960.000000 960.000000"
 preserveAspectRatio="xMidYMid meet">
<metadata>
Created by potrace 1.14, written by Peter Selinger 2001-2017
</metadata>
<g transform="translate(0.000000,960.000000) scale(0.100000,-0.100000)"
fill="#000000" stroke="none">
<path d="M4750 9578 c-32 -19 -186 -109 -255 -148 -16 -9 -172 -99 -345 -200
-173 -100 -411 -237 -527 -303 l-213 -122 0 -402 0 -403 -695 0 -696 0 -487
-281 c-268 -155 -508 -294 -533 -308 -25 -14 -116 -66 -202 -116 l-157 -90 0
-805 0 -805 477 -275 c263 -151 568 -327 678 -390 110 -64 518 -299 908 -524
l707 -409 0 -1601 1 -1601 356 -205 c196 -113 496 -286 667 -385 172 -99 324
-186 338 -194 25 -13 40 -5 395 199 202 117 456 263 563 325 107 62 253 146
325 187 l130 76 0 796 c0 626 3 795 12 792 11 -5 538 -308 723 -416 36 -21
195 -113 355 -205 l289 -167 41 21 c22 11 61 33 87 48 26 15 143 83 260 151
117 67 391 225 608 350 l395 228 1 2402 1 2402 -23 15 c-13 8 -40 24 -61 36
-21 12 -256 148 -523 302 -267 154 -498 288 -515 297 -16 9 -91 52 -165 95
-74 43 -454 262 -845 487 -390 226 -739 427 -775 448 -36 21 -195 113 -355
205 -159 92 -425 246 -591 341 -165 96 -305 174 -310 174 -5 0 -25 -10 -44
-22z"/>
</g>
</svg>
